<svg width="349" height="337" viewBox="0 0 349 337" fill="none" xmlns="http://www.w3.org/2000/svg">
<path fill-rule="evenodd" clip-rule="evenodd" d="M334 134.5C334 200.498 280.498 254 214.5 254C148.502 254 95 200.498 95 134.5C95 68.502 148.502 15 214.5 15C280.498 15 334 68.502 334 134.5ZM349 134.5C349 208.782 288.782 269 214.5 269C179.923 269 148.393 255.952 124.566 234.512C124.358 234.749 124.134 234.977 123.892 235.192L12.5739 334.234C9.47931 336.987 4.73863 336.71 1.98531 333.616C-0.768005 330.521 -0.491347 325.78 2.60325 323.027L113.921 223.985C113.952 223.958 113.983 223.931 114.014 223.904C92.8554 200.14 80 168.821 80 134.5C80 60.2177 140.218 0 214.5 0C288.782 0 349 60.2177 349 134.5Z" fill="black"/>
</svg>
